<svg xmlns="http://www.w3.org/2000/svg" xmlns:xlink="http://www.w3.org/1999/xlink" x="0px" y="0px" width="420px" height="465px" viewBox="0 0 420 465" xml:space="preserve"><g id="Background_Simple">	<g>		<path fill="#F75B69" d="M405.865,261.517c-4.334,36.698-21.09,79.366-54.555,98.967c-50.563,29.622-46.33,75.183-145.024,94.989   c-15.388,3.09-29.99,4.39-43.76,4.133c-7.402-0.137-14.567-0.733-21.478-1.751c-62.726-9.163-104.937-52.763-120.423-105.394   c-20.38-69.219,20.313-114.535,47.286-141.838C94.884,183.32,114.64,98.247,211.509,78.013c14.77-3.078,29.874-4.649,44.974-4.272   c34.465,0.846,72.059,12.163,98.071,35.785c1.953,1.775,3.853,3.615,5.704,5.511C396.413,152.146,411.775,211.486,405.865,261.517   z"></path>		<path opacity="0.7" fill="#FFFFFF" d="M403.092,259.567c-4.334,36.698-21.09,79.366-54.555,98.967   c-50.563,29.622-46.33,75.183-145.023,94.989c-15.388,3.09-29.99,4.39-43.76,4.133c-7.402-0.137-14.567-0.733-21.478-1.751   c-62.726-9.163-104.937-52.763-120.423-105.394c-20.38-69.219,20.313-114.535,47.286-141.838   c26.972-27.303,46.728-112.375,143.597-132.609c14.77-3.078,29.874-4.649,44.974-4.272c34.466,0.846,72.06,12.163,98.071,35.785   c1.953,1.775,3.852,3.615,5.703,5.511C393.641,150.197,409.002,209.537,403.092,259.567z"></path>	</g></g><g id="Plants">	<g opacity="0.15">		<path d="M276.271,82.967c-4.741,3.288-17.483,5.503-17.494,5.505c-0.132,0.023,1.09-8.843,1.231-9.393   c1.635-6.372,8.543-17.722,15.896-18.167c5.298-0.319,9.186,4.279,8.979,9.367C284.671,75.477,280.307,80.166,276.271,82.967z"></path>		<path d="M241.135,243.312c0.006,0.301,0.016,0.581,0.022,0.878l-4.375,2.826c-0.009-1.195-0.014-2.409-0.012-3.661   c-0.003-3.544,0.064-7.331,0.171-11.22c-0.911-0.169-6.086-1.163-10.8-2.699c-2.91,4.736-11.464,11.293-12.574,12.131   c1.915,2.919,3.807,5.738,5.635,8.37c1.254,1.815,2.473,3.548,3.659,5.209l-4.797,0.945c-0.813-1.205-1.635-2.43-2.479-3.71   c-1.958-2.955-3.991-6.152-6.047-9.453c-1.304,0.553-11.982,5.004-17.397,4.856c-4.911-0.136-11.131-1.673-14.153-5.907   c-2.958-4.144-2.22-10.12,2.391-12.751c6.397-3.652,18.39,2.067,23.245,6.505c0.288,0.261,3.078,3.449,4.805,5.489   c-0.833-1.354-1.657-2.658-2.497-4.063c-1.683-2.765-3.277-5.574-5.005-8.589c-0.784-1.485-1.575-2.986-2.375-4.501   c-0.824-1.486-1.506-3.161-2.274-4.752c-1.704-3.73-3.247-7.591-4.716-11.514c-2.425,1.465-11.11,6.548-16.008,7.16   c-4.876,0.61-11.255,0.034-14.883-3.694c-3.552-3.648-3.728-9.668,0.429-12.968c5.771-4.579,18.491-0.742,23.964,2.909   c0.341,0.226,3.973,3.289,5.935,5.008c-0.864-2.365-1.739-4.722-2.537-7.145c-2.302-6.991-4.414-14.139-6.555-21.261   c-0.654-2.182-1.332-4.348-2.003-6.519c-0.857,0.532-11.049,6.795-16.536,7.482c-4.875,0.611-11.256,0.034-14.883-3.694   c-3.551-3.647-3.728-9.667,0.43-12.966c5.771-4.58,18.491-0.743,23.962,2.908c0.412,0.275,5.633,4.688,6.905,5.875   c-1.479-4.782-2.996-9.532-4.683-14.154c-2.317-6.38-4.945-12.513-7.929-18.267c-0.398,0.249-11.008,6.834-16.626,7.538   c-4.875,0.61-11.256,0.033-14.883-3.694c-3.552-3.649-3.728-9.667,0.43-12.967c5.771-4.58,18.49-0.742,23.963,2.908   c0.429,0.287,6.042,5.037,6.999,5.971c-0.179-0.341-0.326-0.715-0.508-1.054c-3.264-6.102-7.192-11.602-11.123-16.571   c-2.278-2.893-4.618-5.53-6.951-8.044c-1.851,1.43-10.378,7.868-15.364,9.06c-4.778,1.142-11.185,1.269-15.198-2.038   c-3.931-3.236-4.768-9.199-0.998-12.936c5.234-5.186,18.297-2.769,24.138,0.259c0.317,0.164,3.36,2.196,5.555,3.707   c-1.07-1.119-2.153-2.294-3.201-3.344c-3.921-3.958-7.756-7.339-11.176-10.308c-1.958-1.671-3.761-3.145-5.465-4.506   c-2.546,0.456-12.835,2.162-17.72,0.944c-4.767-1.189-10.511-4.027-12.551-8.811c-1.996-4.686,0.01-10.363,5.076-11.94   c7.033-2.191,17.515,5.973,21.303,11.352c0.327,0.465,4.612,8.323,4.479,8.348c0,0-0.124,0.023-0.154,0.028   c1.666,1.276,3.435,2.664,5.338,4.219c3.493,2.899,7.411,6.206,11.433,10.094c4.031,3.875,8.299,8.197,12.386,13.156   c4.102,4.965,8.163,10.398,11.624,16.537c0.04,0.069,0.071,0.147,0.11,0.216c-0.455-2.11-1.53-8.052-1.56-8.517   c-0.432-6.564,2.589-19.502,9.439-22.218c4.933-1.955,10.061,1.201,11.451,6.101c1.418,5.003-1.265,10.819-4.228,14.74   c-3.34,4.421-13.904,10.147-14.745,10.601c3.243,5.876,6.091,12.17,8.625,18.697c1.453,3.731,2.799,7.534,4.102,11.364   c-0.334-1.837-0.62-3.482-0.635-3.717c-0.432-6.565,2.59-19.501,9.439-22.217c4.934-1.957,10.061,1.201,11.45,6.1   c1.42,5.003-1.264,10.819-4.226,14.74c-3.006,3.978-11.914,9.042-14.288,10.349c0.484,1.475,0.984,2.942,1.462,4.418   c2.297,7.083,4.558,14.16,6.99,21.035c0.854,2.423,1.786,4.777,2.71,7.136c-0.295-1.631-0.53-3.008-0.544-3.221   c-0.432-6.565,2.59-19.502,9.438-22.218c4.936-1.955,10.063,1.2,11.453,6.101c1.419,5.001-1.266,10.819-4.228,14.739   c-2.867,3.796-11.048,8.544-13.863,10.111c1.019,2.388,2.035,4.781,3.129,7.049c0.783,1.532,1.43,3.06,2.301,4.555   c0.832,1.497,1.655,2.98,2.47,4.449c1.675,2.77,3.385,5.639,5.085,8.3c1.169,1.86,2.318,3.611,3.469,5.378   c-0.879-2.402-2.503-7.14-2.594-7.551c-0.943-4.268-0.795-11.538,1.269-17.035c-0.144-0.63-0.232-1.268-0.254-1.915   c-0.18-5.089,3.731-9.667,9.028-9.318c7.351,0.482,14.198,11.87,15.799,18.249c0.095,0.377,0.664,4.575,0.979,7.229   c0.053-1.589,0.084-3.131,0.158-4.766c0.124-3.233,0.343-6.456,0.563-9.926c0.166-1.671,0.335-3.358,0.504-5.064   c0.132-1.693,0.487-3.466,0.725-5.218c0.637-4.049,1.479-8.123,2.418-12.206c-2.833-0.115-12.879-0.668-17.303-2.859   c-4.403-2.18-9.406-6.183-10.375-11.291c-0.949-5.003,2.223-10.121,7.511-10.579c7.34-0.637,15.833,9.581,18.384,15.645   c0.159,0.379,1.5,4.935,2.188,7.453c0.584-2.45,1.154-4.899,1.826-7.359c1.936-7.102,4.116-14.229,6.261-21.349   c0.658-2.181,1.287-4.361,1.926-6.542c-1.009-0.031-12.966-0.429-17.92-2.882c-4.403-2.18-9.406-6.182-10.375-11.292   c-0.949-5.002,2.224-10.12,7.511-10.578c7.34-0.637,15.833,9.581,18.383,15.645c0.191,0.457,2.111,7.017,2.518,8.708   c1.404-4.802,2.759-9.602,3.902-14.388c1.587-6.601,2.779-13.165,3.463-19.609c-0.47-0.014-12.951-0.374-18.026-2.886   c-4.403-2.181-9.406-6.182-10.375-11.292c-0.95-5.002,2.223-10.119,7.512-10.578c7.339-0.637,15.832,9.581,18.382,15.645   c0.2,0.476,2.262,7.535,2.543,8.84c0.041-0.383,0.125-0.775,0.16-1.157c0.642-6.891,0.4-13.646-0.136-19.959   c-0.304-3.668-0.801-7.158-1.36-10.542c-2.332,0.171-12.997,0.836-17.812-0.92c-4.617-1.684-10.029-5.112-11.554-10.083   c-1.493-4.869,1.099-10.304,6.304-11.34c7.226-1.439,16.79,7.785,19.99,13.531c0.175,0.313,1.593,3.686,2.59,6.157   c-0.276-1.524-0.531-3.102-0.825-4.556c-1.088-5.463-2.419-10.4-3.635-14.763c-0.711-2.476-1.404-4.699-2.074-6.772   c-2.375-1.026-11.897-5.279-15.3-8.99c-3.321-3.621-6.544-9.157-5.607-14.271c0.919-5.01,5.724-8.638,10.82-7.16   c7.076,2.053,11.313,14.646,11.507,21.222c0.015,0.568-0.747,9.485-0.871,9.434c0,0-0.116-0.05-0.143-0.063   c0.685,1.982,1.395,4.117,2.124,6.463c1.314,4.344,2.757,9.265,3.967,14.727c1.224,5.455,2.4,11.416,3.072,17.806   c0.682,6.404,1.074,13.176,0.573,20.205c-0.006,0.08-0.022,0.162-0.028,0.241c0.785-2.011,3.169-7.559,3.399-7.965   c3.261-5.713,12.919-14.836,20.129-13.323c5.194,1.091,7.73,6.552,6.187,11.405c-1.577,4.956-7.024,8.327-11.656,9.962   c-5.227,1.845-17.195,0.794-18.148,0.706c-0.538,6.691-1.632,13.513-3.121,20.354c-0.845,3.913-1.821,7.828-2.847,11.74   c0.734-1.716,1.404-3.246,1.52-3.45c3.262-5.714,12.921-14.837,20.129-13.322c5.195,1.089,7.729,6.551,6.187,11.403   c-1.574,4.956-7.024,8.328-11.656,9.963c-4.702,1.661-14.924,0.969-17.628,0.75c-0.409,1.497-0.801,2.996-1.217,4.491   c-1.991,7.175-4.009,14.326-5.774,21.401c-0.624,2.492-1.145,4.97-1.677,7.448c0.654-1.524,1.218-2.802,1.324-2.989   c3.261-5.713,12.919-14.836,20.129-13.323c5.195,1.09,7.729,6.552,6.187,11.404c-1.577,4.957-7.024,8.327-11.657,9.962   c-4.487,1.585-13.928,1.031-17.141,0.786c-0.468,2.554-0.94,5.11-1.279,7.605c-0.192,1.709-0.498,3.341-0.593,5.068   c-0.133,1.708-0.263,3.399-0.394,5.075c-0.132,3.233-0.289,6.57-0.337,9.728c-0.051,2.196-0.06,4.291-0.074,6.4   c0.591-2.488,1.852-7.336,2.003-7.73c2.356-6.141,10.522-16.621,17.878-16.218c5.3,0.292,8.633,5.306,7.841,10.336   c-0.807,5.137-5.68,9.295-10.011,11.614c-4.771,2.552-16.287,3.35-17.727,3.44C241.041,236.713,241.063,240.108,241.135,243.312z"></path>		<path d="M148.498,111.058c-0.098,0.092-3.97-7.978-4.156-8.514c-2.149-6.217-2.65-19.494,3.238-23.922   c4.242-3.189,10.021-1.498,12.654,2.861c2.69,4.449,1.638,10.769-0.184,15.333C157.912,102.173,148.504,111.05,148.498,111.058z"></path>	</g>	<g opacity="0.15">		<path d="M82.106,268.271c-0.816,2.861-5.174,7.91-5.178,7.914c-0.045,0.052-2.456-3.883-2.579-4.148   c-1.431-3.076-2.386-9.861,0.402-12.442c2.008-1.858,5.062-1.296,6.643,0.802C83.008,262.538,82.801,265.835,82.106,268.271z"></path>		<path d="M120.504,343.71c0.101,0.118,0.196,0.227,0.296,0.343l-0.821,2.557c-0.394-0.474-0.793-0.956-1.201-1.456   c-1.16-1.412-2.371-2.945-3.599-4.531c-0.419,0.23-2.808,1.525-5.19,2.454c0.387,2.84-0.881,8.252-1.05,8.948   c1.718,0.538,3.394,1.044,4.983,1.497c1.094,0.313,2.146,0.606,3.162,0.882l-1.604,1.944c-0.719-0.215-1.447-0.435-2.202-0.669   c-1.746-0.539-3.603-1.149-5.501-1.794c-0.339,0.646-3.144,5.913-5.352,7.624c-2.003,1.551-4.986,2.971-7.576,2.27   c-2.534-0.686-4.193-3.311-3.215-5.867c1.358-3.548,8.01-5.187,11.397-5.004c0.2,0.011,2.355,0.37,3.711,0.619   c-0.774-0.268-1.53-0.519-2.324-0.804c-1.575-0.553-3.129-1.152-4.804-1.79c-0.798-0.336-1.604-0.676-2.418-1.019   c-0.814-0.324-1.634-0.769-2.46-1.152c-1.898-0.931-3.776-1.966-5.645-3.051c-0.488,1.377-2.291,6.243-4.044,8.088   c-1.746,1.838-4.478,3.692-7.144,3.392c-2.609-0.294-4.647-2.638-4.067-5.313c0.805-3.713,7.133-6.34,10.509-6.673   c0.21-0.021,2.66,0.014,4.004,0.058c-1.118-0.661-2.237-1.314-3.347-2.021c-3.204-2.035-6.382-4.196-9.564-6.337   c-0.974-0.657-1.953-1.299-2.93-1.945c-0.168,0.492-2.186,6.321-4.15,8.389c-1.745,1.838-4.479,3.692-7.144,3.392   c-2.609-0.294-4.647-2.638-4.067-5.313c0.805-3.712,7.132-6.34,10.508-6.672c0.254-0.025,3.778,0.028,4.674,0.086   c-2.153-1.424-4.311-2.822-6.494-4.115c-3.01-1.787-6.063-3.374-9.133-4.693c-0.078,0.229-2.157,6.323-4.167,8.44   c-1.745,1.837-4.479,3.692-7.144,3.392c-2.609-0.294-4.647-2.637-4.067-5.313c0.805-3.713,7.132-6.34,10.508-6.673   c0.265-0.025,4.057,0.034,4.743,0.094c-0.183-0.077-0.364-0.179-0.547-0.254c-3.296-1.367-6.661-2.277-9.853-2.975   c-1.854-0.408-3.649-0.695-5.401-0.937c-0.271,1.176-1.568,6.53-3.167,8.636c-1.533,2.018-4.046,4.162-6.728,4.155   c-2.626-0.006-4.909-2.11-4.626-4.833c0.393-3.779,6.393-7.085,9.712-7.786c0.18-0.039,2.058-0.223,3.427-0.338   c-0.793-0.097-1.609-0.211-2.37-0.288c-2.858-0.297-5.493-0.392-7.827-0.458c-1.327-0.026-2.528-0.024-3.653-0.011   c-0.866,1.015-4.412,5.058-6.759,6.169c-2.29,1.084-5.509,1.83-7.886,0.588c-2.328-1.216-3.384-4.136-1.878-6.421   c2.089-3.173,8.938-3.343,12.208-2.436c0.282,0.078,4.56,1.812,4.515,1.865c0,0-0.042,0.05-0.052,0.062   c1.081-0.036,2.24-0.061,3.508-0.063c2.341,0.015,4.984,0.053,7.859,0.289c2.874,0.229,5.99,0.557,9.241,1.199   c3.259,0.64,6.654,1.479,10.042,2.796c0.038,0.015,0.076,0.035,0.115,0.051c-0.872-0.693-3.242-2.712-3.406-2.888   c-2.318-2.477-5.342-8.625-3.498-11.947c1.329-2.393,4.405-2.81,6.562-1.31c2.201,1.532,3.032,4.729,3.132,7.261   c0.113,2.855-2.229,8.592-2.416,9.048c3.214,1.284,6.408,2.863,9.552,4.638c1.799,1.014,3.579,2.09,5.351,3.192   c-0.734-0.624-1.386-1.187-1.468-1.275c-2.318-2.477-5.341-8.624-3.497-11.946c1.328-2.394,4.405-2.81,6.561-1.31   c2.202,1.531,3.032,4.729,3.132,7.26c0.101,2.569-1.796,7.501-2.316,8.799c0.675,0.43,1.354,0.852,2.027,1.284   c3.231,2.073,6.446,4.158,9.663,6.104c1.133,0.688,2.274,1.322,3.414,1.961c-0.651-0.554-1.194-1.026-1.27-1.107   c-2.318-2.477-5.341-8.625-3.498-11.946c1.33-2.393,4.406-2.81,6.562-1.31c2.201,1.53,3.032,4.729,3.132,7.261   c0.097,2.451-1.614,7.019-2.224,8.564c1.187,0.619,2.374,1.241,3.552,1.788c0.813,0.354,1.57,0.753,2.407,1.064   c0.821,0.325,1.634,0.648,2.439,0.968c1.573,0.557,3.193,1.143,4.741,1.648c1.075,0.359,2.105,0.682,3.142,1.011   c-1.136-0.671-3.332-2.03-3.502-2.164c-1.771-1.394-4.089-4.342-5.063-7.209c-0.263-0.205-0.507-0.431-0.727-0.681   c-1.735-1.971-1.671-5.075,0.555-6.668c3.089-2.21,9.542,0.094,12.266,2.114c0.161,0.119,1.76,1.607,2.753,2.563   c-0.498-0.651-0.99-1.276-1.495-1.952c-1.007-1.33-1.974-2.688-3.02-4.144c-0.48-0.721-0.964-1.449-1.454-2.185   c-0.501-0.719-0.939-1.542-1.417-2.318c-1.069-1.822-2.065-3.723-3.025-5.658c-1.167,0.88-5.355,3.943-7.835,4.516   c-2.469,0.569-5.772,0.608-7.829-1.112c-2.014-1.686-2.421-4.764-0.462-6.675c2.719-2.652,9.447-1.354,12.446,0.231   c0.187,0.1,2.211,1.479,3.309,2.257c-0.568-1.167-1.141-2.331-1.677-3.531c-1.55-3.466-3.01-7.021-4.481-10.562   c-0.45-1.085-0.912-2.16-1.37-3.239c-0.413,0.317-5.312,4.067-8.09,4.708c-2.468,0.57-5.772,0.609-7.829-1.112   c-2.013-1.685-2.421-4.763-0.461-6.674c2.719-2.653,9.446-1.354,12.446,0.231c0.226,0.119,3.135,2.108,3.851,2.649   c-1.01-2.374-2.038-4.731-3.146-7.014c-1.524-3.151-3.194-6.159-5.028-8.953c-0.192,0.148-5.288,4.084-8.133,4.741   c-2.469,0.569-5.772,0.608-7.829-1.112c-2.014-1.686-2.421-4.763-0.462-6.675c2.719-2.653,9.447-1.354,12.446,0.231   c0.235,0.125,3.365,2.267,3.904,2.694c-0.109-0.165-0.204-0.35-0.314-0.514c-1.997-2.958-4.3-5.573-6.578-7.916   c-1.32-1.364-2.659-2.593-3.988-3.761c-0.874,0.831-4.91,4.582-7.405,5.455c-2.392,0.838-5.671,1.239-7.904-0.245   c-2.187-1.453-2.93-4.469-1.192-6.583c2.411-2.936,9.241-2.383,12.396-1.137c0.172,0.067,1.84,0.949,3.046,1.609   c-0.608-0.518-1.226-1.063-1.818-1.548c-2.22-1.823-4.365-3.357-6.275-4.7c-1.093-0.755-2.096-1.415-3.041-2.022   c-1.283,0.366-6.471,1.783-9.041,1.415c-2.508-0.358-5.603-1.513-6.901-3.859c-1.271-2.299-0.541-5.316,1.975-6.393   c3.493-1.494,9.299,2.144,11.526,4.703c0.191,0.222,2.802,4.026,2.736,4.047c0,0-0.063,0.019-0.078,0.022   c0.921,0.566,1.902,1.186,2.96,1.883c1.944,1.304,4.128,2.794,6.396,4.577c2.271,1.775,4.689,3.769,7.045,6.098   c2.365,2.332,4.735,4.905,6.833,7.872c0.023,0.034,0.044,0.072,0.067,0.105c-0.344-1.059-1.207-4.051-1.248-4.288   c-0.567-3.345,0.303-10.14,3.673-11.894c2.429-1.263,5.225,0.087,6.196,2.527c0.991,2.492-0.08,5.617-1.393,7.783   c-1.481,2.444-6.599,5.938-7.007,6.214c1.972,2.845,3.766,5.923,5.409,9.139c0.941,1.837,1.832,3.717,2.702,5.613   c-0.268-0.925-0.5-1.754-0.521-1.873c-0.567-3.346,0.304-10.142,3.674-11.894c2.428-1.264,5.224,0.087,6.195,2.526   c0.992,2.491-0.08,5.618-1.393,7.784c-1.332,2.199-5.635,5.265-6.786,6.061c0.326,0.731,0.66,1.457,0.982,2.189   c1.551,3.513,3.083,7.024,4.692,10.423c0.566,1.198,1.168,2.356,1.766,3.519c-0.237-0.821-0.43-1.516-0.449-1.624   c-0.567-3.345,0.303-10.141,3.673-11.894c2.429-1.264,5.225,0.087,6.195,2.526c0.991,2.492-0.08,5.617-1.393,7.784   c-1.271,2.099-5.218,4.964-6.58,5.916c0.648,1.172,1.295,2.346,1.976,3.451c0.482,0.745,0.894,1.496,1.42,2.216   c0.505,0.725,1.006,1.441,1.501,2.152c1.004,1.333,2.032,2.715,3.045,3.99c0.698,0.894,1.379,1.731,2.063,2.577   c-0.578-1.186-1.66-3.531-1.728-3.738c-1.067-3.219-1.236-10.068,1.83-12.313c2.209-1.615,5.177-0.705,6.506,1.56   c1.357,2.313,0.773,5.564-0.197,7.905c-1.069,2.577-5.401,6.659-5.946,7.166C118.309,341.108,119.428,342.456,120.504,343.71z"></path>		<path d="M40.326,321.24c-0.009,0.068-4.191-1.884-4.44-2.037c-2.89-1.777-7.429-6.909-6.528-10.6   c0.649-2.659,3.507-3.873,5.982-2.995c2.527,0.895,4.173,3.76,4.938,6.175C41.177,314.619,40.326,321.235,40.326,321.24z"></path>	</g>	<g opacity="0.15">		<path d="M326.086,268.271c0.816,2.861,5.175,7.91,5.178,7.914c0.046,0.052,2.456-3.883,2.58-4.148   c1.431-3.076,2.386-9.861-0.402-12.442c-2.008-1.858-5.063-1.296-6.643,0.802C325.185,262.538,325.393,265.835,326.086,268.271z"></path>		<path d="M287.689,343.71c-0.102,0.118-0.196,0.227-0.296,0.343l0.82,2.557c0.395-0.474,0.794-0.956,1.202-1.456   c1.159-1.412,2.37-2.945,3.599-4.531c0.419,0.23,2.808,1.525,5.19,2.454c-0.388,2.84,0.881,8.252,1.05,8.948   c-1.718,0.538-3.394,1.044-4.983,1.497c-1.094,0.313-2.146,0.606-3.162,0.882l1.604,1.944c0.719-0.215,1.446-0.435,2.201-0.669   c1.747-0.539,3.604-1.149,5.502-1.794c0.34,0.646,3.144,5.913,5.352,7.624c2.003,1.551,4.986,2.971,7.576,2.27   c2.533-0.686,4.192-3.311,3.214-5.867c-1.357-3.548-8.01-5.187-11.397-5.004c-0.2,0.011-2.354,0.37-3.711,0.619   c0.775-0.268,1.53-0.519,2.324-0.804c1.574-0.553,3.129-1.152,4.804-1.79c0.799-0.336,1.604-0.676,2.419-1.019   c0.814-0.324,1.634-0.769,2.46-1.152c1.899-0.931,3.776-1.966,5.646-3.051c0.488,1.377,2.291,6.243,4.044,8.088   c1.745,1.838,4.479,3.692,7.144,3.392c2.609-0.294,4.647-2.638,4.067-5.313c-0.805-3.713-7.133-6.34-10.509-6.673   c-0.21-0.021-2.659,0.014-4.004,0.058c1.118-0.661,2.237-1.314,3.347-2.021c3.203-2.035,6.383-4.196,9.564-6.337   c0.974-0.657,1.952-1.299,2.93-1.945c0.168,0.492,2.186,6.321,4.149,8.389c1.744,1.838,4.479,3.692,7.144,3.392   c2.609-0.294,4.646-2.638,4.066-5.313c-0.805-3.712-7.132-6.34-10.508-6.672c-0.254-0.025-3.778,0.028-4.674,0.086   c2.152-1.424,4.311-2.822,6.494-4.115c3.01-1.787,6.063-3.374,9.133-4.693c0.078,0.229,2.157,6.323,4.167,8.44   c1.746,1.837,4.479,3.692,7.145,3.392c2.609-0.294,4.646-2.637,4.066-5.313c-0.805-3.713-7.132-6.34-10.508-6.673   c-0.265-0.025-4.057,0.034-4.743,0.094c0.183-0.077,0.363-0.179,0.547-0.254c3.296-1.367,6.661-2.277,9.853-2.975   c1.854-0.408,3.649-0.695,5.402-0.937c0.271,1.176,1.567,6.53,3.166,8.636c1.533,2.018,4.047,4.162,6.729,4.155   c2.626-0.006,4.908-2.11,4.626-4.833c-0.393-3.779-6.393-7.085-9.712-7.786c-0.181-0.039-2.059-0.223-3.428-0.338   c0.793-0.097,1.608-0.211,2.37-0.288c2.857-0.297,5.492-0.392,7.826-0.458c1.328-0.026,2.529-0.024,3.653-0.011   c0.866,1.015,4.412,5.058,6.759,6.169c2.29,1.084,5.509,1.83,7.886,0.588c2.328-1.216,3.384-4.136,1.879-6.421   c-2.089-3.173-8.938-3.343-12.208-2.436c-0.282,0.078-4.56,1.812-4.515,1.865c0,0,0.042,0.05,0.052,0.062   c-1.081-0.036-2.24-0.061-3.508-0.063c-2.341,0.015-4.984,0.053-7.859,0.289c-2.874,0.229-5.989,0.557-9.24,1.199   c-3.26,0.64-6.655,1.479-10.042,2.796c-0.038,0.015-0.076,0.035-0.114,0.051c0.871-0.693,3.242-2.712,3.405-2.888   c2.318-2.477,5.342-8.625,3.498-11.947c-1.329-2.393-4.405-2.81-6.562-1.31c-2.201,1.532-3.032,4.729-3.132,7.261   c-0.113,2.855,2.229,8.592,2.416,9.048c-3.214,1.284-6.408,2.863-9.552,4.638c-1.799,1.014-3.579,2.09-5.351,3.192   c0.734-0.624,1.386-1.187,1.468-1.275c2.318-2.477,5.342-8.624,3.497-11.946c-1.328-2.394-4.405-2.81-6.561-1.31   c-2.202,1.531-3.032,4.729-3.133,7.26c-0.101,2.569,1.797,7.501,2.316,8.799c-0.675,0.43-1.354,0.852-2.027,1.284   c-3.231,2.073-6.446,4.158-9.663,6.104c-1.133,0.688-2.274,1.322-3.414,1.961c0.651-0.554,1.195-1.026,1.271-1.107   c2.318-2.477,5.342-8.625,3.498-11.946c-1.329-2.393-4.406-2.81-6.563-1.31c-2.2,1.53-3.031,4.729-3.131,7.261   c-0.098,2.451,1.613,7.019,2.224,8.564c-1.187,0.619-2.374,1.241-3.553,1.788c-0.813,0.354-1.57,0.753-2.406,1.064   c-0.82,0.325-1.635,0.648-2.439,0.968c-1.573,0.557-3.193,1.143-4.741,1.648c-1.074,0.359-2.105,0.682-3.142,1.011   c1.136-0.671,3.332-2.03,3.503-2.164c1.771-1.394,4.088-4.342,5.062-7.209c0.264-0.205,0.507-0.431,0.728-0.681   c1.735-1.971,1.672-5.075-0.555-6.668c-3.09-2.21-9.543,0.094-12.267,2.114c-0.161,0.119-1.76,1.607-2.754,2.563   c0.498-0.651,0.99-1.276,1.495-1.952c1.008-1.33,1.974-2.688,3.02-4.144c0.48-0.721,0.965-1.449,1.454-2.185   c0.501-0.719,0.939-1.542,1.417-2.318c1.069-1.822,2.065-3.723,3.025-5.658c1.167,0.88,5.354,3.943,7.835,4.516   c2.469,0.569,5.772,0.608,7.829-1.112c2.014-1.686,2.422-4.764,0.462-6.675c-2.719-2.652-9.446-1.354-12.446,0.231   c-0.187,0.1-2.211,1.479-3.309,2.257c0.568-1.167,1.142-2.331,1.678-3.531c1.549-3.466,3.009-7.021,4.48-10.562   c0.45-1.085,0.912-2.16,1.37-3.239c0.412,0.317,5.313,4.067,8.09,4.708c2.469,0.57,5.772,0.609,7.829-1.112   c2.014-1.685,2.421-4.763,0.462-6.674c-2.72-2.653-9.446-1.354-12.446,0.231c-0.226,0.119-3.136,2.108-3.851,2.649   c1.01-2.374,2.038-4.731,3.146-7.014c1.524-3.151,3.194-6.159,5.028-8.953c0.191,0.148,5.287,4.084,8.133,4.741   c2.469,0.569,5.771,0.608,7.829-1.112c2.014-1.686,2.421-4.763,0.461-6.675c-2.719-2.653-9.446-1.354-12.445,0.231   c-0.235,0.125-3.365,2.267-3.904,2.694c0.109-0.165,0.204-0.35,0.314-0.514c1.997-2.958,4.301-5.573,6.579-7.916   c1.32-1.364,2.659-2.593,3.988-3.761c0.874,0.831,4.91,4.582,7.405,5.455c2.392,0.838,5.671,1.239,7.903-0.245   c2.187-1.453,2.93-4.469,1.192-6.583c-2.411-2.936-9.241-2.383-12.396-1.137c-0.172,0.067-1.84,0.949-3.046,1.609   c0.608-0.518,1.226-1.063,1.818-1.548c2.22-1.823,4.364-3.357,6.275-4.7c1.093-0.755,2.096-1.415,3.041-2.022   c1.282,0.366,6.471,1.783,9.04,1.415c2.509-0.358,5.604-1.513,6.901-3.859c1.271-2.299,0.541-5.316-1.975-6.393   c-3.494-1.494-9.3,2.144-11.526,4.703c-0.191,0.222-2.803,4.026-2.736,4.047c0,0,0.063,0.019,0.077,0.022   c-0.921,0.566-1.902,1.186-2.96,1.883c-1.944,1.304-4.128,2.794-6.396,4.577c-2.271,1.775-4.688,3.769-7.045,6.098   c-2.365,2.332-4.735,4.905-6.833,7.872c-0.023,0.034-0.044,0.072-0.067,0.105c0.344-1.059,1.207-4.051,1.247-4.288   c0.567-3.345-0.303-10.14-3.673-11.894c-2.429-1.263-5.226,0.087-6.195,2.527c-0.991,2.492,0.08,5.617,1.393,7.783   c1.481,2.444,6.599,5.938,7.007,6.214c-1.972,2.845-3.766,5.923-5.408,9.139c-0.941,1.837-1.832,3.717-2.702,5.613   c0.269-0.925,0.501-1.754,0.521-1.873c0.567-3.346-0.304-10.142-3.674-11.894c-2.428-1.264-5.224,0.087-6.194,2.526   c-0.992,2.491,0.079,5.618,1.393,7.784c1.332,2.199,5.636,5.265,6.785,6.061c-0.326,0.731-0.659,1.457-0.982,2.189   c-1.551,3.513-3.083,7.024-4.691,10.423c-0.566,1.198-1.168,2.356-1.766,3.519c0.237-0.821,0.43-1.516,0.448-1.624   c0.567-3.345-0.303-10.141-3.674-11.894c-2.428-1.264-5.225,0.087-6.194,2.526c-0.991,2.492,0.079,5.617,1.393,7.784   c1.271,2.099,5.218,4.964,6.58,5.916c-0.648,1.172-1.296,2.346-1.977,3.451c-0.481,0.745-0.894,1.496-1.42,2.216   c-0.505,0.725-1.006,1.441-1.502,2.152c-1.004,1.333-2.032,2.715-3.045,3.99c-0.697,0.894-1.379,1.731-2.063,2.577   c0.578-1.186,1.659-3.531,1.728-3.738c1.068-3.219,1.236-10.068-1.829-12.313c-2.209-1.615-5.178-0.705-6.506,1.56   c-1.357,2.313-0.772,5.564,0.197,7.905c1.068,2.577,5.4,6.659,5.945,7.166C289.884,341.108,288.765,342.456,287.689,343.71z"></path>		<path d="M367.867,321.24c0.009,0.068,4.19-1.884,4.44-2.037c2.89-1.777,7.429-6.909,6.527-10.6   c-0.649-2.659-3.507-3.873-5.982-2.995c-2.527,0.895-4.173,3.76-4.938,6.175C367.017,314.619,367.867,321.235,367.867,321.24z"></path>	</g></g><g id="Money">	<g>		<g>			<g>				<polygon fill="#D1D1D1" stroke="#263238" stroke-linecap="round" stroke-linejoin="round" stroke-miterlimit="10" points="     281.478,286.024 215.225,258.254 271.114,123.971 337.368,151.741     "></polygon>				<path fill="#FFFFFF" stroke="#263238" stroke-linecap="round" stroke-linejoin="round" stroke-miterlimit="10" d="     M324.066,165.446c-4.414-1.851-6.492-6.929-4.643-11.344c0.141-0.336,0.306-0.653,0.482-0.961l-38.041-15.944     c-0.096,0.341-0.207,0.681-0.348,1.017c-1.85,4.415-6.929,6.494-11.343,4.643c-0.167-0.07-0.324-0.153-0.484-0.232     L227.526,244.16c0.169,0.059,0.338,0.112,0.505,0.183c4.415,1.851,6.493,6.929,4.643,11.344     c-0.141,0.335-0.306,0.652-0.482,0.96l38.042,15.945c0.096-0.342,0.206-0.682,0.347-1.018c1.851-4.414,6.929-6.493,11.344-4.643     c0.335,0.141,0.652,0.306,0.96,0.481l42.2-101.621C324.742,165.696,324.402,165.586,324.066,165.446z M270.204,218.19     c-7.236-3.033-10.644-11.358-7.611-18.594c3.034-7.236,11.358-10.644,18.594-7.61c7.236,3.033,10.644,11.358,7.61,18.594     C285.765,217.815,277.44,221.223,270.204,218.19z"></path>			</g>		</g>		<g>			<g>				<polygon fill="#D1D1D1" stroke="#263238" stroke-linecap="round" stroke-linejoin="round" stroke-miterlimit="10" points="     280.606,286.364 217.749,251.586 287.846,124.142 350.704,158.92     "></polygon>				<path fill="#FFFFFF" stroke="#263238" stroke-linecap="round" stroke-linejoin="round" stroke-miterlimit="10" d="     M335.997,171.104c-4.188-2.317-5.704-7.591-3.387-11.779c0.176-0.318,0.374-0.616,0.583-0.903l-36.092-19.969     c-0.133,0.329-0.279,0.655-0.455,0.974c-2.317,4.188-7.592,5.705-11.779,3.388c-0.159-0.088-0.306-0.188-0.456-0.283     l-52.907,96.375c0.161,0.077,0.324,0.148,0.482,0.236c4.188,2.317,5.705,7.591,3.388,11.779     c-0.176,0.318-0.375,0.616-0.583,0.903l36.091,19.969c0.133-0.329,0.279-0.655,0.456-0.974     c2.316-4.188,7.591-5.705,11.779-3.388c0.318,0.176,0.615,0.374,0.902,0.583l52.951-96.457     C336.642,171.427,336.316,171.28,335.997,171.104z M276.742,217.708c-6.865-3.799-9.352-12.443-5.554-19.309     c3.799-6.865,12.443-9.352,19.309-5.553c6.866,3.798,9.352,12.443,5.554,19.309     C292.252,219.021,283.607,221.507,276.742,217.708z"></path>			</g>		</g>		<g>			<g>				<polygon fill="#D1D1D1" stroke="#263238" stroke-linecap="round" stroke-linejoin="round" stroke-miterlimit="10" points="     279.447,286.659 222.007,243.516 309.068,127 366.508,170.142     "></polygon>				<path fill="#FFFFFF" stroke="#263238" stroke-linecap="round" stroke-linejoin="round" stroke-miterlimit="10" d="     M350.257,180.174c-3.827-2.875-4.6-8.308-1.725-12.135c0.218-0.291,0.456-0.558,0.702-0.813l-32.98-24.771     c-0.177,0.308-0.367,0.61-0.586,0.901c-2.874,3.828-8.308,4.6-12.135,1.725c-0.145-0.109-0.276-0.228-0.412-0.344     l-65.736,88.125c0.149,0.099,0.3,0.192,0.445,0.301c3.828,2.875,4.6,8.307,1.725,12.135c-0.218,0.29-0.456,0.558-0.702,0.813     l32.98,24.772c0.177-0.308,0.367-0.61,0.585-0.901c2.875-3.827,8.308-4.6,12.135-1.726c0.291,0.219,0.559,0.457,0.813,0.703     l65.792-88.2C350.851,180.583,350.548,180.393,350.257,180.174z M285.121,218.129c-6.273-4.712-7.539-13.618-2.827-19.892     s13.618-7.54,19.892-2.828c6.273,4.712,7.539,13.618,2.827,19.892S291.395,222.841,285.121,218.129z"></path>			</g>		</g>		<g>			<g>				<polygon fill="#D1D1D1" stroke="#263238" stroke-linecap="round" stroke-linejoin="round" stroke-miterlimit="10" points="     278.299,286.788 227.143,236.354 328.998,132.522 380.154,182.957     "></polygon>				<path fill="#FFFFFF" stroke="#263238" stroke-linecap="round" stroke-linejoin="round" stroke-miterlimit="10" d="     M362.709,190.726c-3.409-3.36-3.448-8.848-0.088-12.256c0.256-0.259,0.527-0.492,0.806-0.712l-29.373-28.958     c-0.216,0.281-0.445,0.556-0.701,0.815c-3.36,3.409-8.848,3.448-12.257,0.087c-0.129-0.127-0.243-0.263-0.362-0.396     l-76.927,78.546c0.134,0.118,0.272,0.23,0.4,0.357c3.409,3.36,3.448,8.848,0.087,12.256c-0.255,0.259-0.526,0.492-0.805,0.712     l29.373,28.959c0.216-0.281,0.445-0.556,0.7-0.815c3.36-3.408,8.848-3.447,12.257-0.087c0.259,0.256,0.492,0.527,0.712,0.805     l76.992-78.612C363.242,191.21,362.968,190.981,362.709,190.726z M293.084,219.632c-5.588-5.509-5.651-14.503-0.143-20.091     c5.508-5.587,14.503-5.651,20.091-0.143c5.587,5.508,5.651,14.503,0.143,20.091C307.666,225.076,298.671,225.14,293.084,219.632     z"></path>			</g>		</g>	</g></g><g id="Passport">	<g>		<path fill="#A8A8A8" stroke="#263238" stroke-linecap="round" stroke-linejoin="round" stroke-miterlimit="10" d="M213.245,275.54   l-91.96,58.459L23.417,179.477l91.96-58.458c3.351-2.13,7.794-1.14,9.924,2.21l90.154,142.387   C217.585,268.967,216.595,273.41,213.245,275.54z"></path>		<path fill="#FFFFFF" stroke="#263238" stroke-linecap="round" stroke-linejoin="round" stroke-miterlimit="10" d="   M210.662,275.641l-91.96,58.458L20.834,179.577l91.96-58.458c3.351-2.13,7.793-1.141,9.923,2.21l90.154,142.388   C215.002,269.067,214.013,273.511,210.662,275.641z"></path>		<path fill="#A8A8A8" stroke="#263238" stroke-linecap="round" stroke-linejoin="round" stroke-miterlimit="10" d="   M207.659,277.685l-91.96,58.458L17.831,181.621l91.96-58.458c3.351-2.13,7.794-1.141,9.924,2.21l90.154,142.388   C211.999,271.111,211.01,275.555,207.659,277.685z"></path>		<g>			<path fill="#FFFFFF" d="M66.991,200.826l-7.069-11.12l2.76-1.754c0.667-0.424,1.278-0.642,1.831-0.653    c0.552-0.01,1.065,0.155,1.539,0.497s0.917,0.837,1.33,1.486c0.373,0.586,0.593,1.159,0.66,1.72    c0.067,0.562-0.026,1.086-0.281,1.576c-0.253,0.489-0.683,0.926-1.287,1.31l-1.222,0.777l3.291,5.175L66.991,200.826z     M64.545,193.553l0.714-0.454c0.448-0.285,0.769-0.559,0.96-0.823c0.193-0.264,0.264-0.556,0.213-0.877    c-0.05-0.321-0.22-0.711-0.511-1.169c-0.337-0.531-0.636-0.913-0.894-1.147c-0.259-0.234-0.546-0.328-0.863-0.28    c-0.316,0.047-0.735,0.236-1.257,0.568l-0.728,0.462L64.545,193.553z"></path>			<path fill="#FFFFFF" d="M72.455,197.353l-4.708-12.621l1.496-0.951l9.444,9.61l-1.468,0.933l-2.289-2.478l-2.265,1.44    l1.245,3.141L72.455,197.353z M72.164,192.044l1.853-1.178l-4.118-4.417L72.164,192.044z"></path>			<path fill="#FFFFFF" d="M82.514,191.132c-0.641,0.407-1.261,0.608-1.861,0.604s-1.165-0.178-1.692-0.524    s-1.014-0.826-1.458-1.444l1.138-1.243c0.277,0.376,0.581,0.717,0.909,1.022c0.33,0.305,0.677,0.504,1.046,0.598    c0.367,0.094,0.748,0.016,1.142-0.235c0.402-0.256,0.636-0.562,0.699-0.917c0.063-0.355-0.038-0.743-0.306-1.165    c-0.32-0.503-0.692-0.835-1.116-0.997c-0.424-0.161-0.908-0.287-1.454-0.377l-2.915-0.46c-0.57-0.087-1.063-0.266-1.478-0.535    c-0.415-0.27-0.8-0.683-1.155-1.242c-0.518-0.814-0.686-1.594-0.504-2.339c0.182-0.745,0.675-1.374,1.48-1.886    c0.44-0.279,0.862-0.467,1.269-0.565c0.407-0.098,0.798-0.1,1.174-0.004c0.375,0.096,0.744,0.282,1.107,0.559    c0.362,0.277,0.721,0.644,1.075,1.1l-1.091,1.194c-0.261-0.348-0.529-0.65-0.807-0.904c-0.276-0.254-0.578-0.41-0.903-0.467    c-0.326-0.056-0.68,0.037-1.064,0.282c-0.385,0.245-0.619,0.538-0.703,0.88c-0.084,0.343,0.002,0.715,0.258,1.118    c0.215,0.338,0.45,0.582,0.704,0.728c0.254,0.147,0.582,0.253,0.983,0.319l2.928,0.452c0.654,0.099,1.303,0.3,1.946,0.604    c0.643,0.305,1.186,0.805,1.628,1.5c0.349,0.549,0.535,1.096,0.561,1.639c0.024,0.543-0.096,1.047-0.36,1.511    C83.428,190.403,83.035,190.801,82.514,191.132z"></path>			<path fill="#FFFFFF" d="M89.008,187.004c-0.641,0.407-1.261,0.608-1.861,0.604c-0.6-0.004-1.165-0.178-1.692-0.524    s-1.014-0.827-1.458-1.444l1.138-1.244c0.277,0.376,0.581,0.717,0.91,1.022c0.329,0.305,0.677,0.504,1.045,0.598    c0.368,0.094,0.748,0.016,1.143-0.235c0.402-0.255,0.636-0.561,0.698-0.917c0.064-0.355-0.038-0.743-0.306-1.164    c-0.32-0.503-0.692-0.835-1.116-0.997c-0.424-0.161-0.908-0.287-1.453-0.377l-2.915-0.46c-0.57-0.087-1.062-0.266-1.478-0.535    c-0.415-0.27-0.8-0.684-1.155-1.242c-0.518-0.815-0.686-1.594-0.505-2.34c0.183-0.745,0.675-1.374,1.481-1.886    c0.439-0.279,0.862-0.467,1.269-0.565s0.798-0.099,1.174-0.004c0.375,0.096,0.744,0.282,1.107,0.559    c0.362,0.278,0.72,0.644,1.075,1.1l-1.091,1.195c-0.26-0.349-0.529-0.65-0.807-0.904c-0.277-0.254-0.578-0.41-0.903-0.466    c-0.325-0.057-0.68,0.037-1.064,0.281c-0.385,0.245-0.619,0.538-0.703,0.881c-0.084,0.342,0.001,0.715,0.257,1.118    c0.215,0.339,0.45,0.582,0.704,0.728c0.254,0.147,0.583,0.254,0.983,0.32l2.928,0.452c0.654,0.099,1.302,0.3,1.945,0.604    c0.644,0.305,1.187,0.805,1.628,1.5c0.349,0.549,0.535,1.096,0.56,1.639c0.024,0.544-0.096,1.048-0.36,1.511    C89.922,186.275,89.529,186.673,89.008,187.004z"></path>			<path fill="#FFFFFF" d="M92.8,184.42l-7.069-11.12l2.76-1.754c0.667-0.424,1.278-0.642,1.831-0.653    c0.552-0.01,1.064,0.155,1.539,0.497c0.474,0.341,0.917,0.837,1.33,1.486c0.373,0.586,0.593,1.159,0.66,1.72    c0.067,0.562-0.026,1.086-0.281,1.576c-0.253,0.489-0.683,0.926-1.287,1.31l-1.222,0.777l3.29,5.176L92.8,184.42z     M90.354,177.146l0.714-0.454c0.448-0.285,0.769-0.559,0.96-0.822c0.193-0.264,0.264-0.556,0.213-0.877s-0.22-0.711-0.511-1.169    c-0.337-0.531-0.636-0.914-0.894-1.148c-0.259-0.234-0.546-0.327-0.863-0.28c-0.316,0.047-0.735,0.237-1.258,0.568l-0.728,0.463    L90.354,177.146z"></path>			<path fill="#FFFFFF" d="M102.31,178.548c-0.75,0.477-1.443,0.712-2.077,0.704c-0.635-0.007-1.222-0.222-1.76-0.645    c-0.538-0.423-1.04-1-1.505-1.732l-2.679-4.214c-0.465-0.732-0.767-1.424-0.904-2.075c-0.138-0.651-0.074-1.258,0.192-1.819    c0.267-0.561,0.775-1.081,1.525-1.557c0.75-0.477,1.436-0.713,2.056-0.709c0.62,0.004,1.193,0.206,1.722,0.602    c0.528,0.396,1.025,0.961,1.49,1.693l2.688,4.228c0.459,0.723,0.763,1.417,0.91,2.082c0.146,0.666,0.095,1.286-0.156,1.863    S103.061,178.071,102.31,178.548z M101.534,177.326c0.412-0.262,0.669-0.544,0.772-0.848c0.103-0.303,0.094-0.631-0.028-0.984    c-0.122-0.353-0.314-0.735-0.576-1.147l-3.098-4.874c-0.262-0.412-0.523-0.743-0.786-0.994c-0.262-0.251-0.549-0.39-0.862-0.416    c-0.313-0.026-0.675,0.091-1.086,0.353s-0.674,0.542-0.788,0.838c-0.113,0.297-0.112,0.618,0.004,0.961    c0.115,0.344,0.304,0.722,0.566,1.134l3.098,4.874c0.262,0.412,0.527,0.748,0.796,1.008c0.268,0.26,0.563,0.406,0.886,0.439    S101.122,177.588,101.534,177.326z"></path>			<path fill="#FFFFFF" d="M106.789,175.527l-7.069-11.12l2.238-1.422c0.741-0.471,1.417-0.763,2.027-0.875    c0.61-0.111,1.17-0.024,1.68,0.262c0.51,0.287,0.988,0.782,1.436,1.487c0.274,0.431,0.477,0.851,0.61,1.261    c0.132,0.411,0.175,0.801,0.127,1.171c-0.047,0.371-0.2,0.715-0.46,1.035l5.122,4.57l-1.496,0.951l-4.771-4.292l-1.208,0.768    l3.316,5.217L106.789,175.527z M104.317,168.212l0.591-0.375c0.438-0.279,0.761-0.561,0.965-0.845    c0.206-0.285,0.287-0.6,0.247-0.947c-0.041-0.347-0.212-0.758-0.515-1.234c-0.413-0.65-0.831-1.043-1.251-1.181    c-0.422-0.136-0.984,0.019-1.689,0.467l-0.687,0.436L104.317,168.212z"></path>			<path fill="#FFFFFF" d="M115.136,170.221l-6.336-9.967l-1.881,1.195l-0.733-1.153l5.257-3.342l0.733,1.153l-1.826,1.161    l6.336,9.967L115.136,170.221z"></path>		</g>		<g>			<circle fill="none" stroke="#FFFFFF" stroke-miterlimit="10" cx="121.062" cy="231.481" r="34.847"></circle>							<ellipse transform="matrix(0.8439 -0.5365 0.5365 0.8439 -105.2867 101.0743)" fill="none" stroke="#FFFFFF" stroke-miterlimit="10" cx="121.062" cy="231.481" rx="14.938" ry="34.847"></ellipse>			<line fill="none" stroke="#FFFFFF" stroke-miterlimit="10" x1="89.895" y1="216.33" x2="120.749" y2="196.717"></line>			<line fill="none" stroke="#FFFFFF" stroke-miterlimit="10" x1="86.424" y1="236.21" x2="140.222" y2="202.01"></line>			<line fill="none" stroke="#FFFFFF" stroke-miterlimit="10" x1="102.072" y1="260.825" x2="155.87" y2="226.626"></line>			<line fill="none" stroke="#FFFFFF" stroke-miterlimit="10" x1="91.579" y1="250.224" x2="150.723" y2="212.625"></line>			<line fill="none" stroke="#FFFFFF" stroke-miterlimit="10" x1="121.829" y1="266.564" x2="152.682" y2="246.951"></line>		</g>	</g></g><g id="Earth_Globe">	<g>		<g>							<circle fill="#F75B69" stroke="#263238" stroke-linecap="round" stroke-linejoin="round" stroke-miterlimit="10" cx="204.493" cy="344.245" r="111.677"></circle>			<g>				<path fill="none" stroke="#263238" stroke-linecap="round" stroke-linejoin="round" stroke-miterlimit="10" d="M182.068,447.568     c5.937,1.292,12.024,2.079,18.204,2.321"></path>				<path fill="none" stroke="#263238" stroke-linecap="round" stroke-linejoin="round" stroke-miterlimit="10" d="M168.379,443.602     c3.026,1.104,6.109,2.07,9.239,2.896"></path>				<path fill="none" stroke="#263238" stroke-linecap="round" stroke-linejoin="round" stroke-miterlimit="10" d="M102.804,315.317     c-4.668,16.354-5.447,34.073-1.5,51.844c7.806,35.147,32.272,62.289,63.25,74.962"></path>				<path fill="none" stroke="#263238" stroke-linecap="round" stroke-linejoin="round" stroke-miterlimit="10" d="M117.017,284.905     c-3.813,5.624-7.086,11.61-9.763,17.873"></path>			</g>			<g>				<defs>					<polygon id="SVGID_1_" points="189.364,294.645 200.748,297.004 204.628,301.029 209.688,301.806 211.297,306.607       210.118,309.855 206.668,311.437 198.216,310.056 197.986,309.021 201.983,306.232 199.224,301.144 191.663,300.107       187.639,296.657      "></polygon>				</defs>				<defs>					<path id="SVGID_2_" d="M281.114,399.705l-9.027-1.525l-10.895-1.382l-8.021,1.781l-7.848,0.114l-7.877,3.649l-4.6,1.293      l-2.847,0.633l-4.744,4.312l-4.715,3.219l-7.963-2.847l0.203-7.647l-4.801-0.834l-5.175,1.148l-1.293-2.156l-0.517-4.772      l-2.386-2.185l-3.507,1.322l-0.46,2.816l-4.341,1.236l-4.915-3.796l-2.932-5.865l2.272-8.106l7.618-1.149l2.472,1.353      l3.105-0.69l3.364-3.19l3.594,0.288l6.439,6.987l1.753-0.661l-1.839-5.837l-2.242-2.76l-0.574-5.031l8.654-6.266l-0.833-9.861      l3.393-4.282l2.042-6.698l2.472-1.093l5.089-5.202l-0.201-2.128l-4.083,1.179l-1.236-1.897l-2.846,0.632l-4.169,2.012      l1.323-3.823l8.482-4.599l1.553-2.788l4.886,4.888l2.846,1.812l3.393-1.84l-2.3-3.019l-6.295-2.675l-7.761-5.606l-7.445-2.963      l-6.44,0.345l-3.794-2.416l-4.37-0.115l-0.288,1.149l1.149,7.619l1.609,2.357l-0.49,8.797l-6.094-2.99l-0.028-3.795      l-6.008-1.381l-2.96-2.329l-0.143-6.756l6.297-7.1l-0.862-6.325l-2.789,0.891l-2.328-1.926l-1.638-3.709l-1.869,0.143      l-0.116,4.37l-2.731,1.149l-3.305-8.769l-2.357-0.834l-3.967-0.748l-3.68,2.989l6.267,3.768l2.012,4.168l-10.866-4.917      l-8.02-5.55l-2.069-6.871l-7.187-0.576l-4.428,4.513c0,0-2.243,2.128-3.422,2.933s-5.98,2.414-5.98,2.414l-0.058,4.628      l-5.894,1.58l1.149,2.731l9.918-0.573l6.123,4.342l2.011,9.056l-1.065,8.653l2.414,8.424l-4.43,14.287l2.643,19.233      l4.742,10.35l5.202,7.533l3.996-0.345l-2.213-3.853l-2.759-2.646l-2.558-5.404l2.214-1.035l5.691,8.511l4.426,7.705      l1.494,6.728l6.238,4.859l10.233,4.515l14.259,0.635l5.002,2.962l4.024,3.45l5.29,1.812l6.037,0.288l5.635-1.522      c0,0,0.316,2.645,0.604,3.938c0.287,1.294-2.358,6.497-2.358,6.497l-1.697,5.807l3.333,5.233l6.21,1.063l9.86,6.499      l3.967,0.748l0.862,3.882l0.853,1.706c19.852-7.893,36.494-21.119,48.594-37.599l-0.282-1.905l4.171-14.229l-3.881-1.582      L281.114,399.705z"></path>				</defs>				<defs>					<path id="SVGID_3_" d="M285.326,291.524l-3.938-4.283l-4.887-4.888l-2.759-7.533l4.83-0.258l-0.315-2.645l-3.422,0.487      l2.56-1.926l2.702-2.5l-0.574-2.588l-4.024-3.45l-1.9-5.422c-25.42-20.001-59.277-28.854-93.316-21.295      c-15.474,3.437-29.474,9.936-41.516,18.709l6.905,2.901l-2.587,5.461l-4.687,2.127l1.034,7.102l-1.897,1.235l-1.956,3.421      l1.293,4.601l4.514-0.46l-0.834,4.801l4.399-0.977l5.377-11.24l-0.143-4.313l7.13-2.126l1.122-3.507l7.331-2.443l-0.2-4.57      l5.376-1.466c0,0,3.421-2.932,4.198-3.104c0.776-0.172,4.686,0.317,4.686,0.317l4.571,2.243l5.434-1.207l4.025-3.88      l6.066-0.805c0,0,1.783,0.69,3.076,0.403c1.294-0.287,4.773-2.961,4.773-2.961l8.538,2.991l3.622,1.64l0.862,3.881l3.996-0.345      l0.777-2.615l3.708,0.805l0.201,2.128l-7.303,3.794l5.663,4.715l10.464,3.106l5.03,4.313l5.808-0.747l0.719-2.875l1.956-0.977      l-7.877-3.681l-4.255,0.401l3.134-1.782l-4.082-3.709l4.341-1.235l6.382,1.841l2.672,5.923l3.593,2.731l3.995,6.986      l6.612,2.876l1.896,8.538l6.813,2.56l0.373,2.903l-0.029,3.536l2.587,4.313l1.035,2.214l4.57-0.201l1.094-4.858      L285.326,291.524z"></path>				</defs>				<defs>					<path id="SVGID_4_" d="M282.901,264.712l0.33,1.485l-0.374,4.427l1.581,3.45l3.075,0.403l1.092,4.916l-3.393-0.604      l2.327,14.145l-1.841,6.382l3.679,6.785l4.054,2.358l3.103,13.972l5.776,10.12l5.462,7.476l6.296,0.231l0.921-5.635      l0.696-0.848c-0.436-4.563-1.152-9.15-2.172-13.741C308.666,298.207,297.734,279.307,282.901,264.712z"></path>				</defs>				<defs>					<polygon id="SVGID_5_" points="222.772,276.365 204.029,272.654 196.583,274.579 195.863,279.897 192.011,277.224       186.606,279.782 187.985,288.435 193.389,290.765 195.661,285.102 200.404,288.12 209.977,293.325 213.195,300.484       221.819,307.529 232.284,303.305 231.164,299.48 227.858,295.599 225.042,285.364 226.652,280.391      "></polygon>				</defs>				<defs>					<polygon id="SVGID_6_" points="238.008,278.955 233.897,278.782 231.166,282.375 234.644,289.477 238.007,288.729      "></polygon>				</defs>				<defs>					<polygon id="SVGID_7_" points="263.163,278.527 253.332,275.823 250.831,273.121 248.933,274.357 251.894,279.13       254.94,285.512 259.166,286.202 259.712,284.995 256.522,281.631 263.824,282.725      "></polygon>				</defs>				<defs>					<polygon id="SVGID_8_" points="208.354,388.713 207.548,389.978 215.828,390.582 219.737,393.515 224.768,392.94       225.947,389.692 219.766,389.979      "></polygon>				</defs>				<defs>					<polygon id="SVGID_9_" points="232.473,388.515 227.384,391.273 228.62,393.171 235.348,391.677 236.182,389.32       233.911,390.096      "></polygon>				</defs>				<use xlink:href="#SVGID_1_" fill="#FFFFFF"></use>				<use xlink:href="#SVGID_2_" fill="#FFFFFF"></use>				<use xlink:href="#SVGID_3_" fill="#FFFFFF"></use>				<use xlink:href="#SVGID_4_" fill="#FFFFFF"></use>				<use xlink:href="#SVGID_5_" fill="#FFFFFF"></use>				<use xlink:href="#SVGID_6_" fill="#FFFFFF"></use>				<use xlink:href="#SVGID_7_" fill="#FFFFFF"></use>				<use xlink:href="#SVGID_8_" fill="#FFFFFF"></use>				<use xlink:href="#SVGID_9_" fill="#FFFFFF"></use>				<clipPath id="SVGID_10_">					<use xlink:href="#SVGID_1_"></use>				</clipPath>				<clipPath id="SVGID_11_" clip-path="url(#SVGID_10_)">					<use xlink:href="#SVGID_2_"></use>				</clipPath>				<clipPath id="SVGID_12_" clip-path="url(#SVGID_11_)">					<use xlink:href="#SVGID_3_"></use>				</clipPath>				<clipPath id="SVGID_13_" clip-path="url(#SVGID_12_)">					<use xlink:href="#SVGID_4_"></use>				</clipPath>				<clipPath id="SVGID_14_" clip-path="url(#SVGID_13_)">					<use xlink:href="#SVGID_5_"></use>				</clipPath>				<clipPath id="SVGID_15_" clip-path="url(#SVGID_14_)">					<use xlink:href="#SVGID_6_"></use>				</clipPath>				<clipPath id="SVGID_16_" clip-path="url(#SVGID_15_)">					<use xlink:href="#SVGID_7_"></use>				</clipPath>				<clipPath id="SVGID_17_" clip-path="url(#SVGID_16_)">					<use xlink:href="#SVGID_8_"></use>				</clipPath>				<clipPath id="SVGID_18_" clip-path="url(#SVGID_17_)">					<use xlink:href="#SVGID_9_"></use>				</clipPath>									<use xlink:href="#SVGID_1_" fill="none" stroke="#263238" stroke-linecap="round" stroke-linejoin="round" stroke-miterlimit="10"></use>									<use xlink:href="#SVGID_2_" fill="none" stroke="#263238" stroke-linecap="round" stroke-linejoin="round" stroke-miterlimit="10"></use>									<use xlink:href="#SVGID_3_" fill="none" stroke="#263238" stroke-linecap="round" stroke-linejoin="round" stroke-miterlimit="10"></use>									<use xlink:href="#SVGID_4_" fill="none" stroke="#263238" stroke-linecap="round" stroke-linejoin="round" stroke-miterlimit="10"></use>									<use xlink:href="#SVGID_5_" fill="none" stroke="#263238" stroke-linecap="round" stroke-linejoin="round" stroke-miterlimit="10"></use>									<use xlink:href="#SVGID_6_" fill="none" stroke="#263238" stroke-linecap="round" stroke-linejoin="round" stroke-miterlimit="10"></use>									<use xlink:href="#SVGID_7_" fill="none" stroke="#263238" stroke-linecap="round" stroke-linejoin="round" stroke-miterlimit="10"></use>									<use xlink:href="#SVGID_8_" fill="none" stroke="#263238" stroke-linecap="round" stroke-linejoin="round" stroke-miterlimit="10"></use>									<use xlink:href="#SVGID_9_" fill="none" stroke="#263238" stroke-linecap="round" stroke-linejoin="round" stroke-miterlimit="10"></use>			</g>		</g>	</g></g><g id="Ubication_Icons">	<g>		<path fill="#263238" stroke="#263238" stroke-miterlimit="10" d="M308.401,268.509c-8.541,0-15.464,6.923-15.464,15.463   s15.464,25.772,15.464,25.772s15.463-17.232,15.463-25.772S316.941,268.509,308.401,268.509z M308.401,290.779   c-3.76,0-6.808-3.048-6.808-6.808s3.048-6.808,6.808-6.808s6.808,3.048,6.808,6.808S312.161,290.779,308.401,290.779z"></path>		<path fill="#263238" stroke="#263238" stroke-miterlimit="10" d="M188.425,308.2c-7.45,0-13.488,6.039-13.488,13.488   s13.488,22.479,13.488,22.479s13.488-15.03,13.488-22.479S195.875,308.2,188.425,308.2z M188.425,327.626   c-3.28,0-5.938-2.658-5.938-5.938c0-3.28,2.658-5.938,5.938-5.938c3.279,0,5.938,2.658,5.938,5.938   C194.363,324.968,191.705,327.626,188.425,327.626z"></path>		<path fill="#263238" stroke="#263238" stroke-miterlimit="10" d="M239.434,413.398c-3.747,0-6.785,3.037-6.785,6.785   c0,3.747,6.785,11.309,6.785,11.309s6.786-7.562,6.786-11.309C246.22,416.436,243.182,413.398,239.434,413.398z M239.434,423.17   c-1.649,0-2.987-1.337-2.987-2.986c0-1.65,1.337-2.987,2.987-2.987c1.65,0,2.987,1.337,2.987,2.987   C242.421,421.833,241.084,423.17,239.434,423.17z"></path>		<path fill="#263238" stroke="#263238" stroke-miterlimit="10" d="M155.062,350.753c-3.747,0-6.785,3.038-6.785,6.785   s6.785,11.309,6.785,11.309s6.785-7.562,6.785-11.309S158.809,350.753,155.062,350.753z M155.062,360.525   c-1.649,0-2.987-1.338-2.987-2.987s1.337-2.987,2.987-2.987c1.65,0,2.987,1.338,2.987,2.987S156.711,360.525,155.062,360.525z"></path>		<path fill="#263238" stroke="#263238" stroke-miterlimit="10" d="M179.06,379.313c-3.748,0-6.785,3.038-6.785,6.785   c0,3.748,6.785,11.309,6.785,11.309s6.785-7.561,6.785-11.309C185.845,382.351,182.807,379.313,179.06,379.313z M179.06,389.085   c-1.65,0-2.987-1.337-2.987-2.987c0-1.649,1.337-2.987,2.987-2.987c1.649,0,2.987,1.338,2.987,2.987   C182.047,387.748,180.709,389.085,179.06,389.085z"></path>		<path fill="#263238" stroke="#263238" stroke-miterlimit="10" d="M263.347,392.132c-4.443,0-8.045,3.602-8.045,8.045   c0,4.442,8.045,13.408,8.045,13.408s8.045-8.966,8.045-13.408C271.392,395.733,267.79,392.132,263.347,392.132z M263.347,403.718   c-1.956,0-3.542-1.585-3.542-3.541s1.586-3.542,3.542-3.542s3.542,1.586,3.542,3.542S265.303,403.718,263.347,403.718z"></path>		<path fill="#263238" stroke="#263238" stroke-miterlimit="10" d="M262.761,238.315c-3.946,0-7.146,3.199-7.146,7.146   c0,3.946,7.146,11.909,7.146,11.909s7.146-7.963,7.146-11.909C269.907,241.515,266.708,238.315,262.761,238.315z M262.761,248.607   c-1.737,0-3.146-1.408-3.146-3.146c0-1.738,1.409-3.146,3.146-3.146c1.738,0,3.146,1.408,3.146,3.146   C265.907,247.199,264.499,248.607,262.761,248.607z"></path>		<path fill="#263238" stroke="#263238" stroke-miterlimit="10" d="M140.463,282.995c-3.946,0-7.146,3.199-7.146,7.146   s7.146,11.91,7.146,11.91s7.146-7.964,7.146-11.91S144.41,282.995,140.463,282.995z M140.463,293.287   c-1.737,0-3.146-1.409-3.146-3.146s1.408-3.146,3.146-3.146c1.738,0,3.146,1.408,3.146,3.146S142.201,293.287,140.463,293.287z"></path>	</g></g><g id="Character">	<g>		<path fill="#263238" stroke="#263238" stroke-miterlimit="10" d="M225.24,129.132c0,0-0.62,56.294-0.62,65.599   c0,9.305-0.775,18.3-0.775,18.3s2.792,2.016,2.326,4.342S224,223.111,224,223.111s-2.171-0.465-3.257-0.155   c-1.085,0.31-7.599,3.256-8.685,3.256c-1.085,0-1.551,0.931-1.861-2.016c-0.31-2.946-0.465-4.962-0.31-7.909   c0.155-2.947,1.085-6.979,1.085-6.979l-6.513-71.182l-1.551,69.321c0,0,0.31,4.188,0.775,4.963s1.241,2.791,1.241,3.566   s-1.396,8.064-2.016,8.375c-0.621,0.31-2.481,1.396-2.481,1.396s-1.241-0.311-2.947-2.481c-1.706-2.171-5.738-2.016-6.513-1.706   s-0.775,0.31-0.775,0.31s-2.326-2.791-2.792-4.807s2.636-2.171,2.481-7.599c-0.155-5.428-4.808-51.487-4.808-51.487l-1.085-31.017   l41.562-1.241L225.24,129.132z"></path>		<path fill="#FFFFFF" stroke="#263238" stroke-miterlimit="10" d="M208.957,57.174l-16.594,1.086l-0.62,70.872   c0,0,1.241,1.085,11.476,1.241c10.235,0.155,12.406-1.086,12.406-1.086L208.957,57.174z"></path>		<path fill="#FFFFFF" stroke="#263238" stroke-miterlimit="10" d="M207.934,22.273c0,0,4.059,5.727,3.987,6.596   c-0.073,0.87-0.508,2.537-0.508,2.537s4.422,4.566,3.987,4.929c-0.435,0.362-2.464,2.102-2.464,2.102s0.072,4.276,0.072,4.929   s0.942,2.32,0.652,2.972c-0.29,0.652-0.87,1.595-1.377,2.029c-0.507,0.435-4.204,0.363-4.204,0.363l-0.073,5.871   c0,0,0.652,3.697,0.073,5.001c-0.58,1.305-2.247,2.32-6.452,2.537c-4.204,0.218-6.251-1.211-7.484-2.227   c-1.232-1.015-1.069-10.386-1.142-11.835c-0.073-1.45-0.145-4.204-0.942-5.437s-6.017-10.003-6.886-12.178   s-0.942-4.422,0.725-6.379c1.667-1.957,3.769-2.827,3.986-3.914c0.218-1.087,0-2.175,1.595-2.682s3.552-0.217,3.552-0.217   s3.044-3.697,4.639-3.262c1.595,0.435,1.595,0.435,1.595,0.435s4.422-1.232,6.741,0.725   C210.326,17.127,210.833,20.244,207.934,22.273z"></path>		<ellipse fill="#263238" stroke="#263238" stroke-miterlimit="10" cx="209.405" cy="32.516" rx="0.639" ry="1.677"></ellipse>		<path fill="#263238" stroke="#263238" stroke-miterlimit="10" d="M189.884,20.171c0.218-1.087,0-2.175,1.595-2.682   s3.552-0.217,3.552-0.217s3.044-3.697,4.639-3.262c1.595,0.435,1.595,0.435,1.595,0.435s4.422-1.232,6.741,0.725   c2.32,1.957,2.827,5.074-0.072,7.104c0,0-7.974,0.87-7.031,2.319s1.45,2.61,0.652,3.044c-0.797,0.435-4.421,2.247-4.059,3.117   c0.362,0.87,0.725,3.189,0.217,3.334c-0.507,0.145-0.435-0.145-1.957-1.305c-1.522-1.16-3.334-0.29-3.552,2.03   c-0.217,2.32,1.667,3.77,2.464,3.914c0.797,0.145,0.363,2.972-1.16,4.06c-0.303,0.216-0.689,0.406-1.124,0.567   c-0.094-0.266-0.198-0.514-0.326-0.712c-0.797-1.232-6.016-10.003-6.886-12.178c-0.87-2.174-0.942-4.422,0.725-6.379   C187.565,22.128,189.667,21.259,189.884,20.171z"></path>		<path fill="none" stroke="#263238" stroke-miterlimit="10" d="M212.21,40.685c0,0-3.262,0.58-5.146-1.74"></path>		<polygon fill="#263238" stroke="#263238" stroke-miterlimit="10" points="208.079,48.731 201.41,46.629 207.934,53.225   "></polygon>		<path fill="none" stroke="#263238" stroke-miterlimit="10" d="M210.324,28.833c0,0-2.352-1.298-3.731,0.649"></path>		<path fill="#263238" stroke="#263238" stroke-miterlimit="10" d="M225.791,84.167c0,0,9.049,15.163,9.293,18.098   c0.245,2.935-4.769,12.961-6.236,13.329c-1.467,0.367-5.625-4.402-6.114-6.359c-0.489-1.956-1.223-24.089-0.367-26.045   S225.791,84.167,225.791,84.167z"></path>		<path fill="#F75B69" stroke="#263238" stroke-miterlimit="10" d="M210.778,56.967l8.675,0.667c0,0,4.782-1.112,6.228-0.667   s21.91,8.341,24.134,9.898c2.224,1.557,1.891,7.229,1.334,9.564s-2.558,2.892-3.559,3.003s-21.688-1.224-21.688-1.224   l5.338,54.163l-11.122,3.67l-7.896,1.001l-3.893-67.508L210.778,56.967z"></path>		<path fill="#F75B69" stroke="#263238" stroke-miterlimit="10" d="M207.934,53.225l2.844,3.742c0,0,0.334,5.672-0.445,8.007   c-0.778,2.336-2.002,4.56-2.002,4.56l-3.559-8.23C204.772,61.305,207.424,57.045,207.934,53.225z"></path>		<path fill="#F75B69" stroke="#263238" stroke-miterlimit="10" d="M194.207,71.648l1.013,65.589c0,0-9.782-1.101-12.961-2.446   c-3.18-1.345-5.38-2.568-5.38-2.568s3.179-23.967,3.301-25.923c0.123-1.957,0.123-3.546,0.123-3.546s-7.215,2.568-9.905,1.712   c-2.69-0.856-3.057-3.668-2.813-7.215c0.245-3.546,0.067-5.288,0.067-5.899s0.73-10.745,3.665-18.327   c2.935-7.582,1.159-7.812,3.238-9.157c2.079-1.345,17.242-6.726,17.242-6.726l1.712,3.546L194.207,71.648z"></path>		<path fill="#263238" stroke="#263238" stroke-miterlimit="10" d="M182.625,60.812c0,0,2.201,25.923-0.367,34.483l-4.036,0.123   c0.256,2.96,2.079-2.324,2.568-18.587c0.21-6.967-2.935-14.429-2.935-14.429S180.791,61.178,182.625,60.812z"></path>		<path fill="#F75B69" stroke="#263238" stroke-miterlimit="10" d="M193.317,53.631c0,0,1.446,3.67,2.335,5.561   c0.89,1.891,1.557,3.114,1.557,3.114l-3.002,9.342c0,0-2.336-6.451-2.781-10.677c-0.445-4.227-0.853-3.583-0.853-3.583   S192.539,52.853,193.317,53.631z"></path>		<path fill="#FFFFFF" stroke="#263238" stroke-miterlimit="10" d="M223.457,41.397c0,0-1.891-0.667-2.558-1.223   c-0.667-0.556-2.002-2.669-2.447-3.114s-2.657,0.332-3.053-0.724c-0.395-1.056-0.606-2.128,0.723-1.814   c1.329,0.313,3.946,0.42,3.946,0.42l-2.088-6.834l9.591,0.055c0,0,2.78,9.454,2.78,10.232c0,0.779-0.445,2.558-0.445,2.558   s13.124,14.681,15.904,18.351c2.781,3.67,6.228,8.675,6.562,10.565c0.333,1.891-0.667,7.896-3.003,8.675   c-2.335,0.779-4.449-0.111-6.896-2.446c-2.447-2.336-9.787-17.35-10.121-17.906c-0.333-0.556-6.006-14.569-6.339-15.014   S223.457,41.397,223.457,41.397z"></path>		<path fill="#263238" stroke="#263238" stroke-miterlimit="10" d="M218.576,57.754c0,0,2.812,18.342,5.869,27.391   s5.625,14.796,5.625,14.796l-1.345,7.948c0,0-5.013-8.682-9.171-20.421c-4.158-11.739-6.481-30.081-6.481-30.081L218.576,57.754z"></path>		<polygon fill="#FFFFFF" stroke="#263238" stroke-miterlimit="10" points="194.096,75.334 197.402,104.622 178.575,102.388    173.663,73.198   "></polygon>		<polygon fill="#FFFFFF" stroke="#263238" stroke-miterlimit="10" points="191.674,75.485 197.666,104.343 178.712,103.854    171.131,75.241   "></polygon>		<path fill="#FFFFFF" stroke="#263238" stroke-miterlimit="10" d="M173.332,92.115c0,0,4.035,2.201,6.359,3.057   c2.323,0.856,4.28,0.611,6.114-0.245s2.813-2.079,2.813-2.079s0.611-3.302,1.345-3.791c0.733-0.489,2.445-0.856,3.179-1.957   c0.734-1.1,1.101-0.978,1.345,0.123s0.489,2.323-0.245,2.813c-0.734,0.489-0.856,1.223-0.856,1.223s0.122,0.856,1.101,0.489   c0.978-0.367,1.589-1.59,2.568-1.223c0.978,0.367,1.345,1.101,0.978,1.957s-0.978,1.712-0.978,1.712s1.223,2.812,0.611,4.646   c-0.611,1.834-3.668,2.935-5.136,3.057c-1.467,0.123-5.625,0.245-5.625,0.245s-5.992,1.957-9.66,3.057s-4.769,0.856-6.848-0.733   c-2.079-1.59-3.057-4.28-2.201-7.215C169.052,94.316,170.03,92.727,173.332,92.115z"></path>		<g>			<path fill="#FFFFFF" stroke="#263238" stroke-miterlimit="10" d="M223.069,220.785c0,0,2.016,4.808,2.481,5.738    c0.465,0.93,1.861,2.636,4.188,4.032c2.326,1.396,5.118,2.327,4.497,3.567c-0.62,1.241-3.412,1.551-5.738,1.861    c-2.326,0.31-7.754-0.621-9.925-0.621c-2.171,0-6.979-0.775-7.444-1.861s0.155-8.84,0.155-8.84S214.85,220.63,223.069,220.785z"></path>			<path fill="#FFFFFF" stroke="#263238" stroke-miterlimit="10" d="M211.128,233.502c-0.146-0.34-0.185-1.334-0.17-2.54    l5.585,1.658c0,0,5.851,1.489,10.426,1.702c3.369,0.157,5.982-0.666,7.128-1.111c0.228,0.292,0.298,0.591,0.138,0.911    c-0.62,1.241-3.412,1.551-5.738,1.861c-2.326,0.31-7.754-0.621-9.925-0.621C216.4,235.363,211.593,234.587,211.128,233.502z"></path>		</g>		<g>			<path fill="#FFFFFF" stroke="#263238" stroke-miterlimit="10" d="M200.904,225.043c0,0-0.453,8.035-0.565,8.578    c-0.113,0.542-0.679,0.977-2.264,1.194c-1.584,0.217-2.263,0.108-3.168,0.543c-0.906,0.434-2.83,1.412-8.262,1.412    s-7.129-0.978-6.45-2.932c0.679-1.954,5.885-5.754,7.129-7.274s2.638-4.782,2.638-4.782s1.55-1.299,4.605-0.647    c3.056,0.651,3.848,1.846,4.188,2.389C199.093,224.066,200.904,225.043,200.904,225.043z"></path>			<path fill="#FFFFFF" stroke="#263238" stroke-miterlimit="10" d="M180.194,233.837c0.04-0.116,0.099-0.24,0.17-0.369    c0.404,0.433,0.994,0.927,1.867,1.346c2.037,0.977,10.072,0.434,11.882-0.543c1.54-0.831,5.277-1.972,6.366-2.297    c-0.061,0.868-0.112,1.505-0.141,1.646c-0.113,0.542-0.679,0.977-2.264,1.194c-1.584,0.217-2.263,0.108-3.168,0.543    c-0.906,0.434-2.83,1.412-8.262,1.412S179.515,235.792,180.194,233.837z"></path>		</g>		<g>			<path fill="#FFFFFF" stroke="#263238" stroke-miterlimit="10" d="M215.479,29.641l7.399-0.488v5.788l-7.399-0.488    c-0.353,0-0.639-1.077-0.639-2.406S215.127,29.641,215.479,29.641z"></path>			<path fill="#FFFFFF" stroke="#263238" stroke-miterlimit="10" d="M213.443,29.065h2.33c0.265,0,0.446,0.262,0.349,0.509    c-0.211,0.536-0.35,1.444-0.35,2.474c0,1.03,0.139,1.938,0.35,2.474c0.097,0.247-0.084,0.508-0.349,0.508h-2.33    c-0.438,0-0.792-1.335-0.792-2.982C212.651,30.4,213.006,29.065,213.443,29.065z"></path>			<path fill="#FFFFFF" stroke="#263238" stroke-miterlimit="10" d="M220.791,28.107l16.068-0.799v9.479l-16.068-0.799    c-0.578,0-1.046-1.764-1.046-3.94S220.212,28.107,220.791,28.107z"></path>			<ellipse fill="#FFFFFF" stroke="#263238" stroke-miterlimit="10" cx="236.859" cy="32.047" rx="1.258" ry="4.739"></ellipse>		</g>		<g>			<path fill="#263238" stroke="#263238" stroke-miterlimit="10" d="M212.67,29.641l7.398-0.488v5.788l-7.398-0.488    c-0.353,0-0.639-1.077-0.639-2.406S212.317,29.641,212.67,29.641z"></path>			<path fill="#FFFFFF" stroke="#263238" stroke-miterlimit="10" d="M210.634,29.065h2.33c0.265,0,0.446,0.262,0.349,0.509    c-0.21,0.536-0.349,1.444-0.349,2.474c0,1.03,0.139,1.938,0.35,2.474c0.097,0.247-0.084,0.508-0.349,0.508h-2.33    c-0.438,0-0.792-1.335-0.792-2.982C209.842,30.4,210.196,29.065,210.634,29.065z"></path>			<path fill="#263238" stroke="#263238" stroke-miterlimit="10" d="M217.98,28.107l16.069-0.799v9.479l-16.069-0.799    c-0.578,0-1.046-1.764-1.046-3.94S217.403,28.107,217.98,28.107z"></path>			<ellipse fill="#FFFFFF" stroke="#263238" stroke-miterlimit="10" cx="234.049" cy="32.047" rx="1.258" ry="4.739"></ellipse>		</g>		<g>			<path fill="#FFFFFF" stroke="#263238" stroke-miterlimit="10" d="M227.297,27.535c0,0-2.071-2.225-2.839-2.225    c-0.767,0-1.995,1.995-2.225,2.225c-0.23,0.23-0.077,0.614,0.767,0.69s1.765-0.614,1.765-0.614L227.297,27.535z"></path>			<path fill="#FFFFFF" stroke="#263238" stroke-miterlimit="10" d="M224.458,25.31c0,0-2.608-0.614-3.222-0.46    c-0.614,0.153-1.765,2.762-1.534,3.146c0.23,0.383,2.532-0.46,2.532-0.46S223.768,25.233,224.458,25.31z"></path>			<path fill="#FFFFFF" stroke="#263238" stroke-miterlimit="10" d="M220.699,25.08c0,0-1.228-0.767-1.841-0.23    c-0.614,0.537-1.918,2.378-1.611,3.068s2.455,0.077,2.455,0.077S220.162,25.31,220.699,25.08z"></path>			<path fill="#FFFFFF" stroke="#263238" stroke-miterlimit="10" d="M218.244,25.31c0,0-1.535-0.614-2.072,0    c-0.537,0.614-1.918,2.532-0.997,2.992c0.92,0.46,1.841-0.92,1.841-0.92L218.244,25.31z"></path>		</g>	</g></g></svg>